Simulation
nRows=44
nColumns=15
endheader
time  TH_x TH_y TH_z SC_y  SC_z  SC_x  AC_y  AC_z  AC_x  GH_y  GH_z  GH_yy  EL_x  PS_y
2.8725  0.000000  0.000000  0.000000  -35.12855255271323  -0.2784434204184338  -24.227986936605078  37.86706066810401  22.900219993601183  15.554798776313062  37.08769276788926  7.2199074276144355  -29.999663201570982  14.05103854174555  120.000000
2.92995  0.000000  0.000000  0.000000  -35.13837488486083  -0.27037049595918555  -23.511417849286232  38.31333293461393  22.88416806151449  15.208454510782847  47.74855040680932  6.207262085655226  -37.88555177340447  14.414992601351894  120.000000
2.9874  0.000000  0.000000  0.000000  -35.23616634719496  -0.1764076617365774  -22.582118465784607  38.773012262623254  22.745363142740565  14.737942789900584  60.47715710532924  5.634372364103512  -48.274359334325986  14.862610343940759  120.000000
3.0448500000000003  0.000000  0.000000  0.000000  -35.3948696018698  0.003424221460430742  -21.491535879280953  39.209098132485195  22.484388779557907  14.172306577369344  73.52948463708935  5.462159085038948  -59.46016532702828  15.349200459374213  120.000000
3.1023  0.000000  0.000000  0.000000  -35.58385051591707  0.2583932589038756  -20.295752462062236  39.602872300561955  22.115050876545244  13.540485402703474  84.99234024119843  5.581918526628698  -69.51291420265808  15.832210773549168  120.000000
3.15975  0.000000  0.000000  0.000000  -35.77808887227003  0.5670557284543142  -19.048605054727847  39.95005189097354  21.659646762766133  12.871871672288144  93.93056285980444  5.855128428183848  -77.4426946363373  16.281782881530482  120.000000
3.2172  0.000000  0.000000  0.000000  -35.95802741544045  0.9013557009736054  -17.79564493410642  40.25752030802645  21.143101506332997  12.193368210094732  100.37714823385737  6.165765921437342  -83.20463632692096  16.688091465050803  120.000000
3.2746500000000003  0.000000  0.000000  0.000000  -36.107030781824974  1.2336963107865218  -16.574651076543258  40.54048655740888  20.589384186612744  11.526224766495043  104.7647026522133  6.441955605543479  -87.14349969628184  17.059328108214952  120.000000
3.3321  0.000000  0.000000  0.000000  -36.212312342276284  1.5411441826185448  -15.415500139147808  40.814893173496756  20.017283160159675  10.886027953399434  107.56798196401236  6.6510737200346215  -89.64878447322835  17.411998660504274  120.000000
3.38955  0.000000  0.000000  0.000000  -36.266884701162546  1.8066752569467004  -14.339656378429607  41.0919961457145  19.440056741282994  10.282986981240885  109.18652734844548  6.788924916241625  -91.04848557587657  17.761202563792008  120.000000
3.447  0.000000  0.000000  0.000000  -36.2726487512409  2.0212056471049724  -13.359760776047972  41.37538831773682  18.866882966762837  9.723702573068422  109.92643002112948  6.869414840504944  -91.59860769838296  18.115932441450795  120.000000
3.5044500000000003  0.000000  0.000000  0.000000  -36.23982320158805  2.183565872847278  -12.481247920522804  41.66128296225516  18.305492502429104  9.211711721639494  110.01189456063506  6.914423163037427  -91.49555806222008  18.47852827050997  120.000000
3.5619  0.000000  0.000000  0.000000  -36.18266049872507  2.297639659985951  -11.704389326219863  41.939452710513955  17.763416767822644  8.748841164979936  109.60922322649795  6.945134145677982  -90.89444961427516  18.8469339513125  120.000000
3.61935  0.000000  0.000000  0.000000  -36.113743642451475  2.3710607236045655  -11.027104014321855  42.19749458005842  17.248130721288064  8.335094785421333  108.8401127407823  6.9785333250059525  -89.91481452701635  19.218067597498113  120.000000
3.6768  0.000000  0.000000  0.000000  -36.03976447346648  2.4147742389843123  -10.448023857067412  42.42549652972338  16.766765932708186  7.966849662774363  107.78416404127445  7.027826466210556  -88.63689682796316  19.59043060420399  120.000000
3.7342500000000003  0.000000  0.000000  0.000000  -35.961894305134166  2.438838163309426  -9.966969005429348  42.6132277940227  16.323809272002087  7.638973889709451  106.4849786956584  7.10067515355398  -87.10390223212933  19.964011342106602  120.000000
3.7917  0.000000  0.000000  0.000000  -35.87716829311419  2.448561082680051  -9.584632474789208  42.74798820843029  15.919616503547793  7.347039317515931  104.94976819197558  7.198382383175978  -85.32006596335205  20.339292578288724  120.000000
3.84915  0.000000  0.000000  0.000000  -35.77845186383363  2.4442154446658773  -9.302726381976424  42.81840843127642  15.551475861771829  7.086372940396607  103.13347306266094  7.318629396938623  -83.23430003538066  20.716416659949065  120.000000
3.9066  0.000000  0.000000  0.000000  -35.65568146277038  2.4228732251838587  -9.123661516881874  42.8172555905214  15.214943465757822  6.8517399318619905  100.9286577017389  7.4590470972833325  -80.73032781528558  21.09468927262526  120.000000
3.9640500000000003  0.000000  0.000000  0.000000  -35.49720907324476  2.379941022246635  -9.05032384255984  42.741753689603485  14.904850293603863  6.637783616837444  98.17072803633674  7.6206808713173215  -77.63372005190129  21.47179753204066  120.000000
4.0215  0.000000  0.000000  0.000000  -35.291878303444705  2.3103725505184003  -9.086263002301273  42.593522005256055  14.616291616797318  6.438755569578062  94.66384295533581  7.814905309388393  -73.74285861138264  21.8436769910289  120.000000
4.07895  0.000000  0.000000  0.000000  -35.030666374371606  2.2110505014512487  -9.235432003008137  42.37872155745491  14.344637695608698  6.249375829015264  90.2474616697336  8.074259626793115  -68.9024897176586  22.204010764747927  120.000000
4.1364  0.000000  0.000000  0.000000  -34.71047715211637  2.081179067899424  -9.499548235269046  42.10536933272084  14.084446826401305  6.069452058583663  84.9111355246531  8.461073807854982  -63.12571960099932  22.542398532889607  120.000000
4.19385  0.000000  0.000000  0.000000  -34.33794099013005  1.9236279116665256  -9.873572021120687  41.77741751560594  13.829292603094316  5.909849019833483  78.91176566749851  9.061241123450447  -56.71365738641551  22.84187585698491  120.000000
4.2513000000000005  0.000000  0.000000  0.000000  -33.93214697271781  1.7545274580721062  -10.343225368023601  41.39439636550068  13.574753348157797  5.792036439878253  72.76612073997913  9.961816506823348  -50.24257494790928  23.079698755270687  120.000000
4.30875  0.000000  0.000000  0.000000  -33.522560968412776  1.6156190798480035  -10.88749745949375  40.967564106471656  13.323828102524883  5.738072798496589  67.07103134039384  11.231504241696266  -44.37142349574915  23.236256258460898  120.000000
4.3662  0.000000  0.000000  0.000000  -33.15947967320739  1.5683850492645033  -11.476816728551896  40.52476695021892  13.08340955415929  5.773679776287539  62.28214338364154  12.914009047378459  -39.60662070510371  23.31051181162558  120.000000
4.42365  0.000000  0.000000  0.000000  -32.92428366516947  1.6758398652615614  -12.06600319100164  40.09182137346046  12.853474335461728  5.943727268312046  58.594825191238634  15.023187450956875  -36.170230073127605  23.331036814890187  120.000000
4.4811  0.000000  0.000000  0.000000  -32.91397882479449  1.9997618922530023  -12.598958771106268  39.69826536709158  12.632694450801067  6.2957376388081245  55.959760166658796  17.547602104037416  -34.01706223444031  23.35308417374891  120.000000
4.53855  0.000000  0.000000  0.000000  -33.210968136120485  2.5984057873061337  -13.019397028266248  39.3922479451216  12.432808346707228  6.847133730022888  54.16947240534061  20.454476411116204  -32.93564393485389  23.43768850597727  120.000000
4.596  0.000000  0.000000  0.000000  -33.85215666068921  3.5032966661705425  -13.267438775191515  39.21747319927111  12.273870446707706  7.587980967246024  52.95176583378449  23.673534323083558  -32.64452923385033  23.622738499880697  120.000000
4.65345  0.000000  0.000000  0.000000  -34.819197623884264  4.701989215747301  -13.274466326512508  39.1946738574246  12.173841367572408  8.494995500155877  52.053061611246285  27.09318349121344  -32.87533626025541  23.9010942579427  120.000000
4.7109000000000005  0.000000  0.000000  0.000000  -36.03795392366551  6.147690138367789  -12.971064874898914  39.330769080161204  12.152703682352177  9.523182192272127  51.27479033299014  30.571809477234726  -33.41134196288402  24.218904806384767  120.000000
4.76835  0.000000  0.000000  0.000000  -37.402329382660284  7.773688433255513  -12.29218539297113  39.617091177035924  12.227851666229803  10.613706206409411  50.482571217249756  33.953847615254936  -34.09860641763122  24.4961963109134  120.000000
4.8258  0.000000  0.000000  0.000000  -38.813144493034486  9.501662342508368  -11.182070554579974  40.026364059064264  12.404461438678752  11.709655123681108  49.6001523430664  37.09792935775867  -34.8437368746583  24.65708004029046  120.000000
4.88325  0.000000  0.000000  0.000000  -40.20873156092786  11.252589499628005  -9.607404653857461  40.52294101554026  12.673724459533563  12.752097448831002  48.585925809424246  39.90758248850374  -35.59737779497071  24.650086794550038  120.000000
4.9407  0.000000  0.000000  0.000000  -41.581838801182315  12.94459531913633  -7.563232677431482  41.069750275328246  13.005278250230237  13.689113405215023  47.41886693567015  42.34882633324416  -36.33958596869272  24.45507810384007  120.000000
4.99815  0.000000  0.000000  0.000000  -42.95908973978545  14.49843903333317  -5.076595926366853  41.643718913862465  13.351026045906332  14.485981078940675  46.101214276796945  44.44625961145424  -37.06738371689618  24.079161319593787  120.000000
5.0556  0.000000  0.000000  0.000000  -44.36361202841535  15.851253439373727  -2.2127281494269013  42.24637305754086  13.666871181842227  15.123893742863523  44.65346677383309  46.26354237506908  -37.7784818011577  23.545145437331662  120.000000
5.11305  0.000000  0.000000  0.000000  -45.79810175075986  16.95582045477254  0.9273632117412226  42.88503199450841  13.923949502492224  15.606904261812284  43.10154374411445  47.8759102688311  -38.45585493159773  22.88947663669385  120.000000
5.1705000000000005  0.000000  0.000000  0.000000  -47.240764242078875  17.78713733526848  4.210243309539555  43.560687304999334  14.10869701471302  15.95663308322344  41.47266909507518  49.34939107085505  -39.069447549792265  22.16184296232548  120.000000
5.22795  0.000000  0.000000  0.000000  -48.64842032472422  18.34359540190149  7.478453313725761  44.26710474846239  14.218710990233795  16.198704595307742  39.801211796477865  50.73143344322111  -39.59377076787585  21.419349095562733  120.000000
5.2854  0.000000  0.000000  0.000000  -49.96392252101273  18.644700969735233  10.56626282417306  44.990581004215144  14.257952392924297  16.3515948026559  38.136590995071764  52.04619564098177  -40.0244380667536  20.716536375500777  120.000000
5.34285  0.000000  0.000000  0.000000  -51.122965037508656  18.728613893162834  13.315792834167095  45.70797690501851  14.234542989691752  16.419089894557708  36.549305123601926  53.29253579114041  -40.383756848834274  20.093383551211176  120.000000
